# xmcd
#
# Track frame offsets: 
#        150
#        5587
#        9084
#        13828
#        18673
#        19874
#        25425
#        29187
#        35900
#        50583
#        58285
#        64764
#        71197
#        80130
#        81884
#        92045
#        95814
#        103430
#        113519
#        123984
#        129630
#        135903
#        148257
#        156349
#        159886
#        164003
#        167556
#        171825
#        181584
#        187251
#        199493
#
# Disc length: 2785 seconds
#
# Revision: 0
# Processed by: cddbd v1.5.1PL0 Copyright (c) Steve Scherf et al.
# Submitted via: ExactAudioCopy v0.95a5
#
DISCID=c80adf1f
DTITLE=Corndawg - Live and in Person
DYEAR=2004
DGENRE=Comedy
TTITLE0=Philly Sports Club
TTITLE1=Backwards Song
TTITLE2=Is It too Late to Abort
TTITLE3=You wont eat meat but you chain up your dog
TTITLE4=College girl
TTITLE5=Through the night
TTITLE6=Morning of love
TTITLE7=Midlife Crisis
TTITLE8=Blood
TTITLE9=Testify my love
TTITLE10=Some bad ass mofo
TTITLE11=Rigo
TTITLE12=Darby Deeby
TTITLE13=I know what its like
TTITLE14=Son of Larry
TTITLE15=On your leg
TTITLE16=Scared to leave
TTITLE17=Hookin all the sailors
TTITLE18=Tyrone
TTITLE19=Lights out on your love
TTITLE20=Hidden storytime
TTITLE21=Red and the goat
TTITLE22=Swingin'
TTITLE23=Cold
TTITLE24=Ok,You win
TTITLE25=Japanese trees
TTITLE26=Tearin' up my heart
TTITLE27=Instrumental
TTITLE28=Instrumental #2
TTITLE29=Outro
TTITLE30=Testify my love
EXTD=
EXTT0=
EXTT1=
EXTT2=
EXTT3=
EXTT4=
EXTT5=
EXTT6=
EXTT7=
EXTT8=
EXTT9=
EXTT10=
EXTT11=
EXTT12=
EXTT13=
EXTT14=
EXTT15=
EXTT16=
EXTT17=
EXTT18=
EXTT19=
EXTT20=
EXTT21=
EXTT22=
EXTT23=
EXTT24=
EXTT25=
EXTT26=
EXTT27=
EXTT28=
EXTT29=
EXTT30=
PLAYORDER=
